# xmcd
#
# Track frame offsets:
#	150
#	20007
#	38223
#	56593
#	86334
#	103301
#	125012
#	140642
#	158353
#	176305
#	191009
#	207977
#	227016
#	249764
#	267966
#	285079
#	299695
#	325616
#
# Disc length: 4347 seconds
#
# Revision: 0
# Processed by: cddbd v1.5.2PL0 Copyright (c) Steve Scherf et al.
# Submitted via: audiograbber 1.83.01
#
DISCID=fa10f912
DTITLE=Top Tunes Karaoke - TTFP-37
DYEAR=1900
DGENRE=
TTITLE0=Amber - Above The Clouds
TTITLE1=Real McCoy - Another Night
TTITLE2=Donna Summer - Bad Girls
TTITLE3=La Boushe - Be My Lover
TTITLE4=Ace of Base - Beautiful Life
TTITLE5=Claudja Barry - Boogie Woogie Dancing Shoes
TTITLE6=Patrick Hernandez - Born To Be Alive
TTITLE7=Le Click - Call Me
TTITLE8=Kylie Minogue - Can's Get You Out of My Head
TTITLE9=Ivan Van Dahl - Castles in the Sky
TTITLE10=Daddy DJ - Daddy DJ
TTITLE11=The Trammps - Disco Inferno
TTITLE12=Thelma Houston - Don't Leave Me This Way
TTITLE13=DJ Sammy and Yanou - Heaven
TTITLE14=Donna Summer - Hot Stuff
TTITLE15=Alicia Bridges - I Love The Night Life
TTITLE16=Gloria Gaynor - I Will Survive
TTITLE17=data Track - Data Track
EXTD=
EXTT0=
EXTT1=
EXTT2=
EXTT3=
EXTT4=
EXTT5=
EXTT6=
EXTT7=
EXTT8=
EXTT9=
EXTT10=
EXTT11=
EXTT12=
EXTT13=
EXTT14=
EXTT15=
EXTT16=
EXTT17=
PLAYORDER=
